<svg xmlns="http://www.w3.org/2000/svg" xmlns:xlink="http://www.w3.org/1999/xlink" id="svg" version="1.1" viewBox="0 0 950 345" preserveAspectRatio="xMinYMin meet" style="display: block;">
  <g id="svgg">
    <path style="fill:#243E6F;"
       d="m 88.685547,24.320312 c -16.615709,2e-6 -25.28276,0.233673 -25.890625,0.699219 -0.50256,0.384894 -2.944978,13.704504 -5.427734,29.59961 -2.482757,15.895104 -6.066379,38.692144 -7.964844,50.660159 -7.825392,49.33159 -10.397643,65.64497 -15.587891,98.88086 -2.995849,19.184 -6.973091,44.1869 -8.837891,55.5625 -1.864799,11.3756 -3.03235,20.95705 -2.59375,21.29296 0.474344,0.3633 11.302047,0.5408 26.722657,0.4375 l 25.925781,-0.17382 4.3125,-27.19922 c 2.37233,-14.96 6.202421,-39.15177 8.509766,-53.75977 6.839074,-43.29875 6.233606,-40.71591 10.285156,-43.98828 8.366578,-6.75753 19.083598,-10.41211 30.529298,-10.41211 9.48886,0 13.22725,2.66729 14.24609,10.16211 0.57616,4.2384 -4.82399,41.47208 -15.78906,108.84961 -1.40089,8.60809 -2.24829,15.88025 -1.88281,16.16016 0.36548,0.27991 12.20738,0.50781 26.3164,0.50781 19.31476,0 25.79449,-0.19649 26.22657,-0.79883 0.31564,-0.44 2.45285,-12.89764 4.74804,-27.68164 2.2952,-14.784 5.93305,-37.96753 8.08594,-51.51953 2.15288,-13.552 4.6409,-29.39122 5.52734,-35.19922 2.04241,-13.38181 0.98471,-36.3522 -1.95507,-42.4668 -2.93647,-6.10773 -9.83256,-12.88505 -15.51368,-15.24609 -19.06395,-7.92282 -46.06911,-4.84068 -65.77539,7.50586 -3.71831,2.32963 -7.77432,4.85886 -9.01172,5.62109 -1.23739,0.76224 -2.66487,1.1902 -3.17187,0.95117 -0.50701,-0.239 0.65712,-10.3194 2.58594,-22.40039 10.2667,-64.304652 11.74578,-74.33361 11.08203,-75.152339 -0.58323,-0.719406 -5.57981,-0.892574 -25.701173,-0.892579 z M 457.68359,58.912109 c -9.79699,10e-4 -19.59488,0.188128 -20.83789,0.560547 -1.33199,0.399081 -4.09143,7.258096 -9.07422,22.550782 -3.93835,12.087181 -7.8122,22.984792 -8.60937,24.216792 -1.10563,1.70871 -4.49583,3.37756 -14.29297,7.03907 -7.06386,2.64 -13.13361,5.37608 -13.48828,6.08008 -1.18107,2.34426 -4.65901,26.0563 -3.90625,26.63281 0.40747,0.31208 5.42113,0.57312 11.14062,0.57812 5.71949,0.005 11.26978,0.26911 12.33399,0.58789 2.04711,0.61317 1.61591,4.09402 -7.45117,60.20118 -4.8027,29.7192 -4.24369,43.1035 2.32422,55.67968 5.11019,9.78495 13.19136,15.76693 24.76953,18.33399 6.31588,1.40035 8.25037,1.50031 26.36328,1.34961 l 19.54687,-0.16211 0.93946,-2.24024 c 0.51646,-1.232 1.64422,-7.71239 2.50586,-14.40039 0.86165,-6.688 1.87235,-12.65942 2.24609,-13.26953 0.47448,-0.77457 -2.95507,-2.80299 -11.36524,-6.7207 -10.09847,-4.70419 -12.29705,-6.09513 -13.60546,-8.61328 -3.38287,-6.51063 -1.81886,-22.70548 7.83007,-81.09766 0.72169,-4.36748 1.97423,-8.2561 2.78516,-8.64063 0.81092,-0.38451 8.59459,-0.84157 17.29688,-1.01757 l 15.82226,-0.32032 0.96289,-5.43945 c 2.97466,-16.81952 4.97288,-31.59765 4.33789,-32.08398 -0.39975,-0.30615 -7.23311,-0.56141 -15.18359,-0.56641 -7.95047,-0.005 -15.32158,-0.27057 -16.38086,-0.58789 -1.65446,-0.49563 -1.38588,-3.88573 1.90039,-24.050781 3.26073,-20.008364 3.5449,-23.557776 1.92578,-24.042969 -1.24193,-0.37215 -11.03895,-0.557648 -20.83594,-0.556641 z m 142.82813,45.500001 c -16.69701,-0.013 -32.4574,2.10954 -43.07813,6.52344 -26.59273,11.05172 -41.8717,37.54385 -49.15234,85.22461 -1.98039,12.96956 -0.83116,41.57005 2.05664,51.16211 2.8761,9.55321 7.90372,18.21986 14.18945,24.46093 5.22962,5.19246 13.62224,9.9829 19.42969,11.08985 1.6352,0.31169 6.92792,0.58347 11.76172,0.60547 7.06958,0.0322 10.46262,-0.33437 17.35156,-1.87696 9.9426,-2.22638 20.85073,-7.22329 25.98047,-11.90039 1.89519,-1.72795 4.00116,-3.14062 4.67969,-3.14062 0.67853,0 2.3079,2.30314 3.62109,5.11914 1.3132,2.816 3.03534,6.19953 3.82617,7.51953 l 1.4375,2.40039 h 20.20118 c 19.85189,0 20.21327,-0.0244 20.86523,-1.43945 0.3649,-0.792 2.21171,-12.23946 4.10352,-25.43946 1.89181,-13.2 4.6412,-32.06392 6.10937,-41.91992 1.46819,-9.856 3.91193,-26.70541 5.42969,-37.4414 1.51777,-10.73602 3.64909,-25.13605 4.73633,-32 2.86367,-18.07883 2.79018,-18.82156 -2.19141,-22.4961 -2.30266,-1.69851 -7.36086,-4.45845 -11.24219,-6.13476 -15.63153,-6.75111 -38.64765,-10.29971 -60.11523,-10.31641 z m -297.77734,1.27734 c -49.94176,0.002 -71.48935,14.15445 -83.55665,53.99024 -6.0764,20.05897 -8.58502,36.83536 -8.7539,58.56054 -0.13302,17.11104 0.26644,22.07895 2.25,28.00977 5.08204,15.19518 13.31764,24.60515 26.64453,30.44531 7.7912,3.41427 14.79121,5.36692 22.31641,6.22852 2.23098,0.25544 11.38038,0.49525 20.33398,0.53125 26.02259,0.10471 39.33779,-2.18592 52.83398,-9.08594 21.45422,-10.96861 31.798,-31.76649 38.41797,-77.25 2.21249,-15.20123 1.83689,-41.74235 -0.71875,-50.87891 -6.18516,-22.11226 -18.06921,-33.19365 -41.06445,-38.28711 -7.82301,-1.73278 -10.6014,-1.99194 -23.78125,-2.2207 -1.67075,-0.029 -3.31086,-0.043 -4.92187,-0.043 z m 416.0625,2.25782 c -10.5426,-0.031 -19.15,0.035 -19.88477,0.25 -1.21948,0.35674 -0.60714,2.36737 2.45703,8.05859 2.24558,4.17081 12.13393,22.39853 21.97266,40.50391 11.89134,21.88265 17.65415,33.57524 17.1914,34.8789 -0.38288,1.07862 -16.26377,21.38523 -35.29101,45.125 -19.02723,23.73976 -34.59375,43.53976 -34.59375,44 0,0.66522 6.49094,0.83594 31.66211,0.83594 h 31.66211 l 2.16796,-2.71875 c 1.19196,-1.496 8.41648,-11.02173 16.05469,-21.16797 7.6382,-10.14624 14.47057,-18.44541 15.1836,-18.44141 1.50879,0.008 2.08862,1.15433 12.15234,24.0586 4.16871,9.48768 7.87811,17.47944 8.24414,17.75976 0.36602,0.28033 14.01535,0.50977 30.33203,0.50977 29.44769,0 29.66797,-0.0103 29.66797,-1.375 0,-0.75618 -3.91389,-8.60363 -8.69727,-17.43945 -4.78332,-8.83582 -14.00544,-25.85622 -20.49414,-37.82422 -6.48869,-11.968 -12.04312,-22.48133 -12.34179,-23.36133 -0.33995,-1.00165 8.26625,-12.72881 23.01172,-31.35938 36.20649,-45.7461 48.26757,-61.14806 48.26757,-61.63476 0,-0.24534 -13.92042,-0.44531 -30.93359,-0.44531 -23.14604,0 -31.26348,0.20217 -32.24414,0.80078 -0.72082,0.44 -8.20269,10.15961 -16.62695,21.59961 -8.42424,11.44 -15.7892,21.0594 -16.36719,21.37695 -1.92361,1.05684 -3.73153,-2.34459 -12.03906,-22.6582 -4.5346,-11.088 -8.66162,-20.34833 -9.17188,-20.58008 -0.82568,-0.37503 -23.77082,-0.70038 -41.34179,-0.75195 z M 603.375,145.26758 c 2.72522,0.0554 5.4703,0.34049 8.16211,0.87304 8.56512,1.69466 8.37618,0.54369 4.44727,27.12696 -1.96493,13.29463 -4.18373,28.78011 -4.92969,34.41211 -0.74595,5.632 -1.96606,12.05741 -2.71094,14.27929 -2.46901,7.36475 -10.81163,14.14983 -20.17383,16.4043 -11.46095,2.75986 -19.22626,1.18757 -23.68554,-4.79492 -8.50572,-11.411 -1.8036,-62.47036 10.18945,-77.62109 5.42605,-6.85469 16.89188,-10.91991 28.70117,-10.67969 z m -303.07227,1.80469 c 9.9796,0 14.93969,1.55081 18.35157,5.73632 2.16594,2.65706 2.45823,4.96957 2.35547,18.71094 -0.114,15.2391 -2.47068,32.12413 -6.74415,48.32031 -3.53575,13.40043 -7.40798,18.78006 -15.31054,21.27149 -6.18197,1.94898 -19.07978,2.02596 -25.57227,0.15234 -6.05964,-1.74871 -8.38146,-4.73609 -9.64062,-12.40234 -1.6594,-10.10298 2.8361,-44.05085 8.1289,-61.39258 4.96562,-16.26968 10.71817,-20.39648 28.43164,-20.39648 z" />
    <ellipse style="fill:#C0252E;" cx="884.54608" cy="266.88922" rx="18.3097" ry="18.595789" />
    <path style="fill:#C0252E;stroke:#C0252E;stroke-width:1px;"
       d="m 780.82382,152.42794 33.6774,-44.08334 h 63.00323 l -71.32798,92.51826 z" />
       <text x="41%" y="91%" fill="#C0252E" font-size="30" font-weight="700" font-family="Roboto, Helvetica, Arial, sans-serif">empowering travel agents everyday</text>
  </g>
  <defs>
  <style type="text/css">@import url('https://fonts.googleapis.com/css?family=Roboto:700');"</style>
  </defs>
</svg>
